<?xml version="1.0" encoding="iso-8859-1"?>
<!-- Uploaded to: SVG Repo, www.svgrepo.com, Generator: SVG Repo Mixer Tools -->
<svg fill="#000000" height="800px" width="800px" version="1.1" id="Layer_1" xmlns="http://www.w3.org/2000/svg" xmlns:xlink="http://www.w3.org/1999/xlink" 
	 viewBox="0 0 206.351 206.351" xml:space="preserve">
<g>
	<g>
		<g>
			<path d="M159.108,2.405c-5.855-3.752-16.086-2.407-29.048-0.695c-8.266,1.093-17.637,2.332-26.855,2.332
				c-9.218,0-18.588-1.238-26.855-2.331C63.385-0.006,53.158-1.347,47.303,2.405C26.556,15.718,22.772,51.08,38.48,83.32
				c-1.014,7.082-1.527,15.116-1.527,23.903c0,38.254,10.275,74.365,27.482,96.595c1.03,1.326,2.762,1.878,4.368,1.393
				c1.602-0.485,2.742-1.91,2.857-3.583c3.658-51.709,18.912-82.607,31.546-82.607c12.768,0,28.082,31.258,31.609,83.562
				c0.114,1.661,1.235,3.086,2.825,3.583c0.398,0.126,0.805,0.185,1.207,0.185c1.207,0,2.375-0.541,3.156-1.519
				c17.708-22.159,28.283-58.649,28.283-97.609c0-9.209-0.619-17.602-1.839-24.973C183.501,50.373,179.495,15.489,159.108,2.405z
				 M141.913,190.86c-4.376-41.387-17.456-79.92-38.707-79.92c-21.015,0-34.083,37.922-38.577,78.741
				c-12.389-20.995-19.594-50.88-19.594-82.457c0-8.91,0.545-16.966,1.622-23.947c0.126-0.829-0.004-1.681-0.383-2.431
				C31.977,52.425,34.4,20.287,51.667,9.207C55.036,7.049,65.335,8.41,75.29,9.72c8.515,1.128,18.166,2.403,27.916,2.403
				s19.401-1.274,27.916-2.403c9.967-1.314,20.261-2.671,23.623-0.513c16.959,10.882,19.59,42.59,5.871,70.683
				c-0.375,0.769-0.497,1.638-0.347,2.482c1.286,7.209,1.937,15.57,1.937,24.85C162.206,139.499,154.74,169.83,141.913,190.86z"/>
			<path d="M133.508,18.011c-14.481,0-26.263,11.782-26.263,26.263s11.782,26.263,26.263,26.263s26.263-11.782,26.263-26.263
				S147.989,18.011,133.508,18.011z M133.508,62.455c-10.026,0-18.182-8.156-18.182-18.182s8.156-18.182,18.182-18.182
				s18.182,8.156,18.182,18.182S143.535,62.455,133.508,62.455z"/>
			<path d="M66.842,50.334c-8.914,0-16.162,7.248-16.162,16.162s7.248,16.162,16.162,16.162s16.162-7.248,16.162-16.162
				S75.755,50.334,66.842,50.334z M66.842,74.576c-4.455,0-8.081-3.626-8.081-8.081s3.626-8.081,8.081-8.081
				c4.455,0,8.081,3.626,8.081,8.081S71.297,74.576,66.842,74.576z"/>
		</g>
	</g>
</g>
</svg>